<?xml version="1.0" encoding="UTF-8"?>
<svg id="_图层_2" data-name="图层 2" xmlns="http://www.w3.org/2000/svg" viewBox="0 0 258.78 259.13">
  <defs>
    <style>
      .cls-1 {
        fill: #1a1632;
        stroke-width: 0px;
      }
    </style>
  </defs>
  <g id="_图层_1-2" data-name="图层 1">
    <g>
      <g>
        <path class="cls-1" d="M49.44,151.41l-4.96-4.96c3.98-4.6,6.14-10.39,6.14-16.53s-2.16-11.93-6.14-16.52c-.4-.47-.82-.93-1.27-1.38-3.05-3.05-6.73-5.22-10.76-6.39-2.29-.68-4.69-1.03-7.14-1.03-6.77,0-13.13,2.64-17.91,7.42-9.87,9.87-9.87,25.93,0,35.81,4.94,4.93,11.42,7.4,17.9,7.4,2.41,0,4.81-.34,7.14-1.02l5.46,5.46,57.42,57.42c1.83-3.62,4.25-6.97,7.15-9.87.49-.49.96-.94,1.42-1.36l-54.45-54.45ZM34.58,136.41c-.37.54-.8,1.04-1.27,1.52-3.43,3.43-8.55,4.19-12.72,2.28-1.19-.54-2.31-1.3-3.29-2.28-4.41-4.42-4.41-11.6,0-16.01.98-.98,2.1-1.74,3.29-2.28,1.49-.69,3.1-1.03,4.71-1.03,2.9,0,5.8,1.1,8.01,3.31.47.47.89.98,1.27,1.51,2.72,3.88,2.72,9.1,0,12.98Z"/>
        <path class="cls-1" d="M108.07,49.44l4.96-4.96c4.6,3.98,10.39,6.14,16.53,6.14s11.93-2.16,16.52-6.14c.47-.4.93-.82,1.38-1.27,3.05-3.05,5.22-6.73,6.39-10.76.68-2.29,1.03-4.69,1.03-7.14,0-6.77-2.64-13.13-7.42-17.91-9.87-9.87-25.93-9.87-35.81,0-4.93,4.94-7.4,11.42-7.4,17.9,0,2.41.34,4.81,1.02,7.14l-5.46,5.46-57.42,57.42c3.62,1.83,6.97,4.25,9.87,7.15.49.49.94.96,1.36,1.42l54.45-54.45ZM123.07,34.58c-.54-.37-1.04-.8-1.52-1.27-3.43-3.43-4.19-8.55-2.28-12.72.54-1.19,1.3-2.31,2.28-3.29,4.42-4.41,11.6-4.41,16.01,0,.98.98,1.74,2.1,2.28,3.29.69,1.49,1.03,3.1,1.03,4.71,0,2.9-1.1,5.8-3.31,8.01-.47.47-.98.89-1.51,1.27-3.88,2.72-9.1,2.72-12.98,0Z"/>
        <path class="cls-1" d="M209.33,108.43l4.96,4.96c-3.98,4.6-6.14,10.39-6.14,16.53s2.16,11.93,6.14,16.52c.4.47.82.93,1.27,1.38,3.05,3.05,6.73,5.22,10.76,6.39,2.29.68,4.69,1.03,7.14,1.03,6.77,0,13.13-2.64,17.91-7.42,9.87-9.87,9.87-25.93,0-35.81-4.94-4.93-11.42-7.4-17.9-7.4-2.41,0-4.81.34-7.14,1.02l-5.46-5.46-57.42-57.42c-1.83,3.62-4.25,6.97-7.15,9.87-.49.49-.96.94-1.42,1.36l54.45,54.45ZM224.19,123.43c.37-.54.8-1.04,1.27-1.52,3.43-3.43,8.55-4.19,12.72-2.28,1.19.54,2.31,1.3,3.29,2.28,4.41,4.42,4.41,11.6,0,16.01-.98.98-2.1,1.74-3.29,2.28-1.49.69-3.1,1.03-4.71,1.03-2.9,0-5.8-1.1-8.01-3.31-.47-.47-.89-.98-1.27-1.51-2.72-3.88-2.72-9.1,0-12.98Z"/>
        <path class="cls-1" d="M151.05,209.69l-4.96,4.96c-4.6-3.98-10.39-6.14-16.53-6.14s-11.93,2.16-16.52,6.14c-.47.4-.93.82-1.38,1.27-3.05,3.05-5.22,6.73-6.39,10.76-.68,2.29-1.03,4.69-1.03,7.14,0,6.77,2.64,13.13,7.42,17.91,9.87,9.87,25.93,9.87,35.81,0,4.93-4.94,7.4-11.42,7.4-17.9,0-2.41-.34-4.81-1.02-7.14l5.46-5.46,57.42-57.42c-3.62-1.83-6.97-4.25-9.87-7.15-.49-.49-.94-.96-1.36-1.42l-54.45,54.45ZM136.05,224.55c.54.37,1.04.8,1.52,1.27,3.43,3.43,4.19,8.55,2.28,12.72-.54,1.19-1.3,2.31-2.28,3.29-4.42,4.41-11.6,4.41-16.01,0-.98-.98-1.74-2.1-2.28-3.29-.69-1.49-1.03-3.1-1.03-4.71,0-2.9,1.1-5.8,3.31-8.01.47-.47.98-.89,1.51-1.27,3.88-2.72,9.1-2.72,12.98,0Z"/>
      </g>
      <path class="cls-1" d="M190.26,115.86l-50.21-50.21c-5.78-5.78-15.19-5.78-20.98,0l-50.21,50.21c-5.78,5.79-5.78,15.2,0,20.98l50.21,50.21c2.8,2.8,6.53,4.34,10.49,4.34s7.69-1.54,10.49-4.34l50.21-50.21c2.8-2.79,4.34-6.52,4.34-10.49s-1.54-7.7-4.34-10.5ZM108.44,130.93c0,.62-.24,1.2-.68,1.65l-12.74,12.74-17.33-17.32c-.44-.43-.68-1.02-.68-1.64,0-.62.24-1.21.68-1.65l12.75-12.74,17.31,17.31c.44.44.68,1.02.68,1.64ZM131.45,91.68c-.44.44-1.03.68-1.65.68h0c-.62,0-1.2-.24-1.64-.68l-8.72-8.72,8.46-8.46c.9-.89,2.42-.88,3.29,0l8.72,8.71-8.47,8.47ZM129.57,178.89h0c-.62,0-1.21-.24-1.65-.68l-7.35-7.35,27.92-27.98c1.84.68,3.83,1.03,5.8,1.03,3.97,0,7.8-1.41,10.77-3.93.35-.28.69-.6,1.05-.96,1.95-1.94,3.39-4.34,4.17-6.94.48-1.59.72-3.23.72-4.89,0-4.48-1.74-8.68-4.89-11.82-3.15-3.16-7.35-4.9-11.82-4.9s-8.67,1.74-11.83,4.89c-3.16,3.16-4.9,7.36-4.9,11.82,0,1.67.25,3.32.73,4.9.25.82.56,1.61.93,2.37l-27.5,27.56-7.86-7.86,12.74-12.74c2.81-2.81,4.35-6.53,4.35-10.49s-1.55-7.7-4.35-10.49l-17.31-17.31,11.31-11.31,8.71,8.72c2.8,2.8,6.53,4.34,10.49,4.34s7.69-1.54,10.49-4.34l8.47-8.47,32.65,32.65c.44.44.68,1.03.68,1.65,0,.62-.24,1.2-.68,1.64l-50.21,50.21c-.43.44-1.02.68-1.64.68ZM149.2,125.13c.29-.7.69-1.31,1.2-1.81,1.27-1.26,3.07-1.85,4.78-1.52,1.14.17,2.17.7,2.99,1.52.52.52.92,1.12,1.2,1.8.3.75.43,1.51.39,2.32-.04,1.38-.61,2.68-1.58,3.65-.27.27-.55.5-.84.7-1.84,1.22-4.22,1.22-6.07,0l-.13-.08c-.25-.18-.49-.38-.72-.61-1.04-1.04-1.61-2.42-1.61-3.88,0-.71.14-1.42.4-2.06Z"/>
    </g>
  </g>
</svg>